<?xml version="1.0" ?><svg enable-background="new 0 0 64 64" height="64px" version="1.1" viewBox="0 0 64 64" width="64px" xml:space="preserve" xmlns="http://www.w3.org/2000/svg" xmlns:xlink="http://www.w3.org/1999/xlink"><g id="Layer_1"><g><circle cx="32" cy="32" fill="#4F5D73" r="32"/></g><g opacity="0.2"><path d="M55.949,32.5C55.204,20.441,45.559,10.796,33.5,10.051V10h-3v0.051C18.441,10.796,8.796,20.441,8.051,32.5    H8v3h0.051C8.796,47.559,18.441,57.204,30.5,57.949V58h3v-0.051c12.059-0.744,21.704-10.39,22.449-22.449H56v-3H55.949z     M45.471,32.5c-0.097-2.784-0.458-5.441-1.044-7.888c1.835-0.595,3.55-1.315,5.091-2.165c1.935,2.924,3.143,6.358,3.406,10.053    H45.471z M38.931,18.5c0.688,1.222,1.27,2.583,1.767,4.03c-2.271,0.519-4.693,0.833-7.198,0.924V13.267    C35.447,13.902,37.367,15.719,38.931,18.5z M30.5,13.267v10.187c-2.505-0.091-4.928-0.405-7.198-0.924    c0.497-1.448,1.08-2.808,1.767-4.03C26.633,15.719,28.553,13.902,30.5,13.267z M30.5,26.453V32.5h-8.96    c0.091-2.477,0.399-4.867,0.924-7.091C25.005,26.003,27.711,26.358,30.5,26.453z M30.5,35.5v6.196    c-2.776,0.094-5.469,0.445-8,1.034c-0.544-2.263-0.867-4.7-0.96-7.23H30.5z M30.5,44.695v10.038    c-1.947-0.635-3.867-2.452-5.431-5.233c-0.666-1.184-1.234-2.497-1.721-3.894C25.605,45.094,28.012,44.784,30.5,44.695z     M33.5,54.733V44.696c2.488,0.091,4.894,0.402,7.151,0.915c-0.487,1.394-1.055,2.706-1.72,3.889    C37.367,52.281,35.447,54.098,33.5,54.733z M33.5,41.697V35.5h8.96c-0.093,2.531-0.417,4.969-0.961,7.234    C38.969,42.145,36.276,41.792,33.5,41.697z M33.5,32.5v-6.047c2.789-0.095,5.495-0.45,8.036-1.044    c0.524,2.224,0.832,4.614,0.924,7.091H33.5z M47.651,20.047c-1.239,0.651-2.596,1.215-4.046,1.691    c-0.944-2.818-2.204-5.26-3.692-7.178C42.9,15.78,45.534,17.675,47.651,20.047z M24.087,14.56    c-1.488,1.918-2.748,4.36-3.692,7.178c-1.45-0.476-2.807-1.04-4.046-1.691C18.466,17.675,21.1,15.78,24.087,14.56z M14.481,22.448    c1.541,0.85,3.257,1.569,5.091,2.164c-0.586,2.447-0.947,5.104-1.044,7.888h-7.453C11.339,28.806,12.547,25.372,14.481,22.448z     M18.529,35.5c0.099,2.836,0.473,5.539,1.078,8.024c-1.821,0.587-3.528,1.295-5.062,2.133c-1.974-2.946-3.203-6.419-3.469-10.157    H18.529z M16.44,48.053c1.227-0.637,2.567-1.191,3.998-1.658c0.939,2.762,2.184,5.156,3.649,7.044    C21.142,52.237,18.542,50.378,16.44,48.053z M39.913,53.44c1.464-1.887,2.708-4.279,3.647-7.038    c1.429,0.467,2.767,1.022,3.993,1.659C45.452,50.382,42.855,52.238,39.913,53.44z M49.449,45.666    c-1.532-0.839-3.238-1.548-5.058-2.136c0.606-2.487,0.981-5.191,1.08-8.03h7.453C52.658,39.241,51.426,42.719,49.449,45.666z" fill="#231F20"/></g><g><path d="M32,11c11.579,0,21,9.421,21,21s-9.421,21-21,21s-21-9.421-21-21S20.421,11,32,11 M32,8    C18.745,8,8,18.745,8,32s10.745,24,24,24s24-10.745,24-24S45.255,8,32,8L32,8z" fill="#FFFFFF"/></g><g><path d="M32,11c2.439,0,4.965,2.005,6.931,5.5C41.233,20.592,42.5,26.096,42.5,32s-1.267,11.408-3.569,15.5    C36.965,50.995,34.439,53,32,53s-4.965-2.005-6.931-5.5C22.767,43.408,21.5,37.904,21.5,32s1.267-11.408,3.569-15.5    C27.035,13.005,29.561,11,32,11 M32,8c-7.456,0-13.5,10.745-13.5,24S24.544,56,32,56s13.5-10.745,13.5-24S39.456,8,32,8L32,8z" fill="#FFFFFF"/></g><g><rect fill="#FFFFFF" height="48" width="3" x="30.5" y="8"/></g><g><path d="M32,24.5c-7.425,0-14.447-1.861-19.266-5.106l1.676-2.488C18.746,19.825,25.157,21.5,32,21.5    c6.836,0,13.244-1.672,17.58-4.588l1.674,2.49C46.436,22.642,39.418,24.5,32,24.5z" fill="#FFFFFF"/></g><g><path d="M49.579,47.244c-4.336-2.92-10.747-4.595-17.59-4.595c-6.837,0-13.244,1.673-17.58,4.589l-1.674-2.49    c4.817-3.24,11.836-5.099,19.254-5.099c7.425,0,14.447,1.861,19.266,5.106L49.579,47.244z" fill="#FFFFFF"/></g><g><rect fill="#FFFFFF" height="3" width="48" x="8" y="30.5"/></g></g><g id="Layer_2"/></svg>